<svg width="20" height="20" viewBox="0 0 20 20" fill="none" xmlns="http://www.w3.org/2000/svg">
<path d="M3.328 10.5808L10.2203 17.4731C10.4186 17.6714 10.5164 17.9034 10.514 18.1691C10.5113 18.4349 10.4067 18.6712 10.2 18.8781C9.99311 19.0712 9.75889 19.1712 9.49733 19.1781C9.23578 19.185 9.00156 19.085 8.79467 18.8781L0.341 10.4245C0.216111 10.2996 0.128111 10.1679 0.0769999 10.0295C0.0256666 9.89102 0 9.74147 0 9.5808C0 9.42014 0.0256666 9.27058 0.0769999 9.13214C0.128111 8.99369 0.216111 8.86202 0.341 8.73713L8.79467 0.283469C8.97933 0.0988022 9.208 0.00435773 9.48067 0.000135511C9.75333 -0.00408671 9.99311 0.0903577 10.2 0.283469C10.4067 0.490358 10.51 0.727913 10.51 0.996136C10.51 1.26458 10.4067 1.50225 10.2 1.70913L3.328 8.5808H18.4973C18.7811 8.5808 19.0187 8.67658 19.21 8.86814C19.4016 9.05947 19.4973 9.29702 19.4973 9.5808C19.4973 9.86458 19.4016 10.1021 19.21 10.2935C19.0187 10.485 18.7811 10.5808 18.4973 10.5808H3.328Z" fill="#3DCFB6"/>
</svg>
