<svg width="203" height="14" viewBox="0 0 203 14" fill="none" xmlns="http://www.w3.org/2000/svg">
<path d="M4.88699 0.161999C5.91899 0.161999 6.79499 0.413999 7.51499 0.917999C8.23499 1.416 8.78399 2.091 9.16199 2.943C9.54599 3.789 9.73799 4.728 9.73799 5.76C9.73799 6.792 9.54599 7.734 9.16199 8.586C8.78399 9.432 8.23499 10.107 7.51499 10.611C6.79499 11.109 5.91899 11.358 4.88699 11.358C3.85499 11.358 2.97299 11.109 2.24099 10.611C1.51499 10.107 0.959994 9.432 0.575994 8.586C0.191994 7.734 -5.82263e-06 6.792 -5.82263e-06 5.76C-5.82263e-06 4.728 0.191994 3.789 0.575994 2.943C0.959994 2.091 1.51499 1.416 2.24099 0.917999C2.97299 0.413999 3.85499 0.161999 4.88699 0.161999ZM4.94999 2.34C5.41199 2.34 5.79899 2.4 6.11099 2.52C6.42299 2.634 6.73799 2.808 7.05599 3.042L6.41699 3.906C6.18299 3.714 5.94899 3.576 5.71499 3.492C5.48099 3.408 5.24399 3.366 5.00399 3.366C4.52999 3.366 4.12799 3.552 3.79799 3.924C3.47399 4.29 3.31199 4.896 3.31199 5.742C3.31199 6.54 3.46799 7.128 3.77999 7.506C4.09199 7.884 4.49999 8.073 5.00399 8.073C5.32799 8.073 5.61299 8.016 5.85899 7.902C6.11099 7.788 6.34199 7.635 6.55199 7.443L7.14599 8.316C6.89399 8.532 6.59399 8.727 6.24599 8.901C5.89799 9.069 5.47199 9.153 4.96799 9.153C4.11599 9.153 3.41099 8.862 2.85299 8.28C2.30099 7.692 2.02499 6.846 2.02499 5.742C2.02499 4.998 2.15999 4.374 2.42999 3.87C2.69999 3.366 3.05699 2.985 3.50099 2.727C3.95099 2.469 4.43399 2.34 4.94999 2.34ZM4.88699 1.062C4.01699 1.062 3.29399 1.272 2.71799 1.692C2.14799 2.112 1.71899 2.679 1.43099 3.393C1.14899 4.101 1.00799 4.89 1.00799 5.76C1.00799 6.624 1.14899 7.413 1.43099 8.127C1.71899 8.835 2.14799 9.399 2.71799 9.819C3.29399 10.233 4.01699 10.44 4.88699 10.44C5.75099 10.44 6.46799 10.233 7.03799 9.819C7.61399 9.399 8.04299 8.835 8.32499 8.127C8.60699 7.413 8.74799 6.624 8.74799 5.76C8.74799 4.89 8.60399 4.101 8.31599 3.393C8.03399 2.679 7.60799 2.112 7.03799 1.692C6.46799 1.272 5.75099 1.062 4.88699 1.062ZM23.4939 13.599V1.206H25.0599V12.204H30.7119L30.5319 13.599H23.4939ZM35.1689 4.122V10.836C35.1689 11.46 35.2979 11.91 35.5559 12.186C35.8139 12.462 36.2159 12.6 36.7619 12.6C37.2839 12.6 37.7759 12.453 38.2379 12.159C38.7059 11.859 39.0689 11.505 39.3269 11.097V4.122H40.8389V13.599H39.5519L39.4259 12.321C39.0539 12.801 38.5949 13.17 38.0489 13.428C37.5029 13.68 36.9509 13.806 36.3929 13.806C35.4749 13.806 34.7879 13.563 34.3319 13.077C33.8819 12.585 33.6569 11.898 33.6569 11.016V4.122H35.1689ZM52.3879 4.122L48.1219 8.388L52.8829 13.599H50.8939L46.2319 8.424L50.4259 4.122H52.3879ZM46.0609 0.116999V13.599H44.5489V0.305998L46.0609 0.116999ZM62.0288 11.529C62.0288 11.907 62.0918 12.183 62.2178 12.357C62.3438 12.531 62.5388 12.66 62.8028 12.744L62.4338 13.806C62.0258 13.752 61.6688 13.623 61.3628 13.419C61.0568 13.209 60.8348 12.894 60.6968 12.474C60.3548 12.912 59.9288 13.245 59.4188 13.473C58.9088 13.695 58.3448 13.806 57.7268 13.806C56.7788 13.806 56.0318 13.539 55.4858 13.005C54.9398 12.471 54.6668 11.763 54.6668 10.881C54.6668 9.903 55.0478 9.153 55.8098 8.631C56.5718 8.109 57.6728 7.848 59.1128 7.848H60.5078V7.056C60.5078 6.372 60.3068 5.889 59.9048 5.607C59.5088 5.319 58.9568 5.175 58.2488 5.175C57.9368 5.175 57.5708 5.214 57.1508 5.292C56.7308 5.364 56.2748 5.487 55.7828 5.661L55.3868 4.518C55.9688 4.302 56.5148 4.149 57.0248 4.059C57.5348 3.969 58.0208 3.924 58.4828 3.924C59.6648 3.924 60.5498 4.2 61.1378 4.752C61.7318 5.298 62.0288 6.042 62.0288 6.984V11.529ZM58.1138 12.654C58.5818 12.654 59.0288 12.537 59.4548 12.303C59.8808 12.063 60.2318 11.733 60.5078 11.313V8.874H59.1398C58.0958 8.874 57.3578 9.054 56.9258 9.414C56.4998 9.774 56.2868 10.257 56.2868 10.863C56.2868 11.451 56.4368 11.898 56.7368 12.204C57.0428 12.504 57.5018 12.654 58.1138 12.654ZM69.2578 12.555C69.9838 12.555 70.5568 12.42 70.9768 12.15C71.4028 11.874 71.6158 11.508 71.6158 11.052C71.6158 10.764 71.5618 10.515 71.4538 10.305C71.3518 10.095 71.1388 9.906 70.8148 9.738C70.4908 9.57 69.9928 9.402 69.3208 9.234C68.6668 9.072 68.0968 8.886 67.6108 8.676C67.1308 8.46 66.7558 8.181 66.4858 7.839C66.2218 7.497 66.0898 7.053 66.0898 6.507C66.0898 5.973 66.2398 5.514 66.5398 5.13C66.8458 4.74 67.2688 4.443 67.8088 4.239C68.3488 4.029 68.9758 3.924 69.6898 3.924C70.4518 3.924 71.1148 4.026 71.6788 4.23C72.2488 4.428 72.7318 4.674 73.1278 4.968L72.4618 5.994C72.1018 5.748 71.7058 5.547 71.2738 5.391C70.8418 5.229 70.3198 5.148 69.7078 5.148C68.9638 5.148 68.4358 5.265 68.1238 5.499C67.8118 5.727 67.6558 6.024 67.6558 6.39C67.6558 6.666 67.7308 6.897 67.8808 7.083C68.0368 7.263 68.2978 7.428 68.6638 7.578C69.0298 7.722 69.5338 7.881 70.1758 8.055C70.7938 8.217 71.3308 8.412 71.7868 8.64C72.2488 8.868 72.6088 9.168 72.8668 9.54C73.1248 9.912 73.2538 10.392 73.2538 10.98C73.2538 11.652 73.0618 12.198 72.6778 12.618C72.2938 13.032 71.7958 13.335 71.1838 13.527C70.5778 13.713 69.9358 13.806 69.2578 13.806C68.3998 13.806 67.6678 13.683 67.0618 13.437C66.4618 13.185 65.9578 12.882 65.5498 12.528L66.4138 11.529C66.7858 11.835 67.2118 12.084 67.6918 12.276C68.1778 12.462 68.6998 12.555 69.2578 12.555ZM95.3617 1.206L96.0637 13.599H94.5607L94.1737 7.128C94.1557 6.69 94.1377 6.246 94.1197 5.796C94.1017 5.346 94.0897 4.914 94.0837 4.5C94.0777 4.086 94.0747 3.717 94.0747 3.393C94.0747 3.069 94.0747 2.817 94.0747 2.637L91.9867 11.376H90.4207L88.1797 2.637C88.1857 2.811 88.1917 3.069 88.1977 3.411C88.2037 3.747 88.2067 4.128 88.2067 4.554C88.2127 4.98 88.2097 5.418 88.1977 5.868C88.1917 6.312 88.1797 6.726 88.1617 7.11L87.8287 13.599H86.3617L87.0637 1.206H89.2417L91.2487 9.693L93.1657 1.206H95.3617ZM99.9267 4.122V10.836C99.9267 11.46 100.056 11.91 100.314 12.186C100.572 12.462 100.974 12.6 101.52 12.6C102.042 12.6 102.534 12.453 102.996 12.159C103.464 11.859 103.827 11.505 104.085 11.097V4.122H105.597V13.599H104.31L104.184 12.321C103.812 12.801 103.353 13.17 102.807 13.428C102.261 13.68 101.709 13.806 101.151 13.806C100.233 13.806 99.5457 13.563 99.0897 13.077C98.6397 12.585 98.4147 11.898 98.4147 11.016V4.122H99.9267ZM100.143 1.926C99.8547 1.926 99.6177 1.836 99.4317 1.656C99.2457 1.476 99.1527 1.248 99.1527 0.971998C99.1527 0.689998 99.2457 0.458999 99.4317 0.278999C99.6177 0.0929987 99.8547 -1.3113e-06 100.143 -1.3113e-06C100.413 -1.3113e-06 100.641 0.0929987 100.827 0.278999C101.019 0.458999 101.115 0.689998 101.115 0.971998C101.115 1.248 101.019 1.476 100.827 1.656C100.641 1.836 100.413 1.926 100.143 1.926ZM103.851 1.926C103.575 1.926 103.344 1.836 103.158 1.656C102.972 1.476 102.879 1.248 102.879 0.971998C102.879 0.689998 102.972 0.458999 103.158 0.278999C103.344 0.0929987 103.575 -1.3113e-06 103.851 -1.3113e-06C104.133 -1.3113e-06 104.367 0.0929987 104.553 0.278999C104.745 0.458999 104.841 0.689998 104.841 0.971998C104.841 1.248 104.745 1.476 104.553 1.656C104.367 1.836 104.133 1.926 103.851 1.926ZM112.898 0.305998V11.259C112.898 11.727 113.042 12.06 113.33 12.258C113.624 12.45 114.002 12.546 114.464 12.546C114.752 12.546 115.025 12.516 115.283 12.456C115.541 12.396 115.799 12.315 116.057 12.213L116.462 13.32C116.204 13.446 115.883 13.557 115.499 13.653C115.121 13.755 114.692 13.806 114.212 13.806C113.372 13.806 112.691 13.575 112.169 13.113C111.647 12.645 111.386 12 111.386 11.178V1.503H108.479V0.305998H112.898ZM123.691 0.305998V11.259C123.691 11.727 123.835 12.06 124.123 12.258C124.417 12.45 124.795 12.546 125.257 12.546C125.545 12.546 125.818 12.516 126.076 12.456C126.334 12.396 126.592 12.315 126.85 12.213L127.255 13.32C126.997 13.446 126.676 13.557 126.292 13.653C125.914 13.755 125.485 13.806 125.005 13.806C124.165 13.806 123.484 13.575 122.962 13.113C122.44 12.645 122.179 12 122.179 11.178V1.503H119.272V0.305998H123.691ZM131.982 9.396C132.012 10.128 132.153 10.728 132.405 11.196C132.657 11.658 132.99 12 133.404 12.222C133.818 12.438 134.268 12.546 134.754 12.546C135.24 12.546 135.678 12.474 136.068 12.33C136.464 12.186 136.869 11.973 137.283 11.691L137.994 12.69C137.55 13.038 137.043 13.311 136.473 13.509C135.909 13.707 135.33 13.806 134.736 13.806C133.818 13.806 133.035 13.599 132.387 13.185C131.739 12.771 131.244 12.195 130.902 11.457C130.566 10.713 130.398 9.852 130.398 8.874C130.398 7.914 130.569 7.062 130.911 6.318C131.253 5.574 131.733 4.989 132.351 4.563C132.969 4.137 133.698 3.924 134.538 3.924C135.336 3.924 136.023 4.113 136.599 4.491C137.175 4.863 137.616 5.397 137.922 6.093C138.234 6.783 138.39 7.608 138.39 8.568C138.39 8.73 138.387 8.883 138.381 9.027C138.375 9.165 138.366 9.288 138.354 9.396H131.982ZM134.556 5.166C133.854 5.166 133.266 5.415 132.792 5.913C132.324 6.411 132.057 7.182 131.991 8.226H136.932C136.914 7.212 136.692 6.45 136.266 5.94C135.84 5.424 135.27 5.166 134.556 5.166ZM141.677 13.599V12.438H143.153V5.283H141.677V4.122H144.305L144.584 6.363C144.95 5.583 145.394 4.98 145.916 4.554C146.438 4.128 147.128 3.915 147.986 3.915C148.25 3.915 148.484 3.936 148.688 3.978C148.898 4.014 149.111 4.062 149.327 4.122L148.886 5.472C148.688 5.418 148.508 5.379 148.346 5.355C148.184 5.325 147.998 5.31 147.788 5.31C147.062 5.31 146.438 5.568 145.916 6.084C145.394 6.6 144.977 7.38 144.665 8.424V12.438H146.591V13.599H141.677ZM147.869 7.326V5.265L148.022 4.122H149.327L149.111 7.326H147.869ZM166.215 1.008C166.995 1.008 167.661 1.158 168.213 1.458C168.771 1.758 169.2 2.169 169.5 2.691C169.8 3.213 169.95 3.804 169.95 4.464C169.95 5.034 169.851 5.592 169.653 6.138C169.455 6.678 169.137 7.248 168.699 7.848C168.267 8.442 167.697 9.102 166.989 9.828C166.287 10.554 165.423 11.382 164.397 12.312H170.238L170.049 13.599H162.678V12.366C163.614 11.472 164.409 10.689 165.063 10.017C165.723 9.345 166.266 8.757 166.692 8.253C167.124 7.743 167.46 7.281 167.7 6.867C167.946 6.453 168.117 6.06 168.213 5.688C168.309 5.31 168.357 4.92 168.357 4.518C168.357 3.822 168.159 3.273 167.763 2.871C167.373 2.469 166.833 2.268 166.143 2.268C165.531 2.268 165.03 2.373 164.64 2.583C164.25 2.793 163.86 3.129 163.47 3.591L162.426 2.781C162.918 2.181 163.464 1.737 164.064 1.449C164.664 1.155 165.381 1.008 166.215 1.008ZM177.556 1.008C178.894 1.008 179.905 1.56 180.589 2.664C181.273 3.768 181.615 5.346 181.615 7.398C181.615 9.456 181.273 11.04 180.589 12.15C179.905 13.254 178.894 13.806 177.556 13.806C176.224 13.806 175.213 13.254 174.523 12.15C173.839 11.04 173.497 9.456 173.497 7.398C173.497 5.346 173.839 3.768 174.523 2.664C175.213 1.56 176.224 1.008 177.556 1.008ZM177.556 2.223C176.794 2.223 176.194 2.628 175.756 3.438C175.318 4.242 175.099 5.562 175.099 7.398C175.099 8.328 175.147 9.123 175.243 9.783C175.339 10.443 175.486 10.98 175.684 11.394C175.888 11.802 176.143 12.102 176.449 12.294C176.761 12.486 177.13 12.582 177.556 12.582C178.072 12.582 178.513 12.405 178.879 12.051C179.251 11.697 179.533 11.139 179.725 10.377C179.923 9.609 180.022 8.616 180.022 7.398C180.022 6.162 179.935 5.163 179.761 4.401C179.593 3.639 179.326 3.087 178.96 2.745C178.6 2.397 178.132 2.223 177.556 2.223ZM179.383 2.664L179.779 3.987L175.837 11.97L175.279 10.917L179.383 2.664ZM187.8 1.008C188.58 1.008 189.246 1.158 189.798 1.458C190.356 1.758 190.785 2.169 191.085 2.691C191.385 3.213 191.535 3.804 191.535 4.464C191.535 5.034 191.436 5.592 191.238 6.138C191.04 6.678 190.722 7.248 190.284 7.848C189.852 8.442 189.282 9.102 188.574 9.828C187.872 10.554 187.008 11.382 185.982 12.312H191.823L191.634 13.599H184.263V12.366C185.199 11.472 185.994 10.689 186.648 10.017C187.308 9.345 187.851 8.757 188.277 8.253C188.709 7.743 189.045 7.281 189.285 6.867C189.531 6.453 189.702 6.06 189.798 5.688C189.894 5.31 189.942 4.92 189.942 4.518C189.942 3.822 189.744 3.273 189.348 2.871C188.958 2.469 188.418 2.268 187.728 2.268C187.116 2.268 186.615 2.373 186.225 2.583C185.835 2.793 185.445 3.129 185.055 3.591L184.011 2.781C184.503 2.181 185.049 1.737 185.649 1.449C186.249 1.155 186.966 1.008 187.8 1.008ZM202.508 1.206L202.283 2.412H197.387V6.318C197.765 6.114 198.122 5.976 198.458 5.904C198.8 5.826 199.157 5.787 199.529 5.787C200.201 5.787 200.792 5.94 201.302 6.246C201.812 6.546 202.208 6.987 202.49 7.569C202.772 8.151 202.913 8.853 202.913 9.675C202.913 10.497 202.739 11.22 202.391 11.844C202.049 12.468 201.566 12.951 200.942 13.293C200.318 13.635 199.577 13.806 198.719 13.806C197.975 13.806 197.309 13.674 196.721 13.41C196.139 13.146 195.608 12.78 195.128 12.312L196.064 11.412C196.442 11.796 196.847 12.084 197.279 12.276C197.717 12.462 198.203 12.555 198.737 12.555C199.553 12.555 200.189 12.309 200.645 11.817C201.101 11.319 201.329 10.59 201.329 9.63C201.329 8.964 201.23 8.439 201.032 8.055C200.834 7.671 200.564 7.398 200.222 7.236C199.886 7.068 199.511 6.984 199.097 6.984C198.731 6.984 198.407 7.02 198.125 7.092C197.843 7.158 197.522 7.26 197.162 7.398H195.947V1.206H202.508Z" fill="#3DCFB6"/>
</svg>
