<svg xmlns="http://www.w3.org/2000/svg" xmlns:xlink="http://www.w3.org/1999/xlink" width="132" zoomAndPan="magnify" viewBox="0 0 98.88 36.000001" height="48" preserveAspectRatio="xMidYMid meet" version="1.0"><defs><g/><clipPath id="fe7801a282"><path d="M 1.277344 4 L 24 4 L 24 33 L 1.277344 33 Z M 1.277344 4 " clip-rule="nonzero"/></clipPath></defs><g fill="#ffffff" fill-opacity="1"><g transform="translate(46.864281, 15.924176)"><g><path d="M 1.1875 0 L 1.1875 -12.203125 L 3.421875 -12.203125 L 3.421875 -7.265625 L 7.921875 -12.203125 L 10.671875 -12.203125 L 6.1875 -7.359375 L 10.796875 0 L 8.0625 0 L 4.578125 -5.640625 L 3.421875 -4.375 L 3.421875 0 Z M 1.1875 0 "/></g></g></g><g fill="#ffffff" fill-opacity="1"><g transform="translate(56.114754, 15.924176)"><g><path d="M 5.328125 0.203125 C 4.460938 0.203125 3.691406 0.0195312 3.015625 -0.34375 C 2.335938 -0.71875 1.804688 -1.238281 1.421875 -1.90625 C 1.046875 -2.582031 0.859375 -3.363281 0.859375 -4.25 C 0.859375 -5.144531 1.046875 -5.941406 1.421875 -6.640625 C 1.796875 -7.335938 2.316406 -7.878906 2.984375 -8.265625 C 3.648438 -8.648438 4.4375 -8.84375 5.34375 -8.84375 C 6.195312 -8.84375 6.945312 -8.65625 7.59375 -8.28125 C 8.25 -7.914062 8.757812 -7.410156 9.125 -6.765625 C 9.488281 -6.117188 9.671875 -5.398438 9.671875 -4.609375 C 9.671875 -4.484375 9.664062 -4.347656 9.65625 -4.203125 C 9.65625 -4.066406 9.648438 -3.925781 9.640625 -3.78125 L 3.0625 -3.78125 C 3.113281 -3.101562 3.347656 -2.570312 3.765625 -2.1875 C 4.191406 -1.8125 4.707031 -1.625 5.3125 -1.625 C 5.769531 -1.625 6.148438 -1.722656 6.453125 -1.921875 C 6.765625 -2.128906 6.992188 -2.394531 7.140625 -2.71875 L 9.40625 -2.71875 C 9.238281 -2.175781 8.96875 -1.679688 8.59375 -1.234375 C 8.21875 -0.785156 7.753906 -0.429688 7.203125 -0.171875 C 6.648438 0.078125 6.023438 0.203125 5.328125 0.203125 Z M 5.34375 -7.03125 C 4.800781 -7.03125 4.320312 -6.875 3.90625 -6.5625 C 3.488281 -6.257812 3.21875 -5.796875 3.09375 -5.171875 L 7.40625 -5.171875 C 7.375 -5.742188 7.164062 -6.195312 6.78125 -6.53125 C 6.394531 -6.863281 5.914062 -7.03125 5.34375 -7.03125 Z M 5.34375 -7.03125 "/></g></g></g><g fill="#ffffff" fill-opacity="1"><g transform="translate(64.999438, 15.924176)"><g><path d="M 3.46875 0 L 0.296875 -8.640625 L 2.625 -8.640625 L 4.828125 -2.109375 L 7.015625 -8.640625 L 9.359375 -8.640625 L 6.171875 0 Z M 3.46875 0 "/></g></g></g><g fill="#ffffff" fill-opacity="1"><g transform="translate(73.448641, 15.924176)"><g><path d="M 2.328125 -9.984375 C 1.921875 -9.984375 1.585938 -10.101562 1.328125 -10.34375 C 1.066406 -10.59375 0.9375 -10.898438 0.9375 -11.265625 C 0.9375 -11.640625 1.066406 -11.945312 1.328125 -12.1875 C 1.585938 -12.425781 1.921875 -12.546875 2.328125 -12.546875 C 2.734375 -12.546875 3.066406 -12.425781 3.328125 -12.1875 C 3.597656 -11.945312 3.734375 -11.640625 3.734375 -11.265625 C 3.734375 -10.898438 3.597656 -10.59375 3.328125 -10.34375 C 3.066406 -10.101562 2.734375 -9.984375 2.328125 -9.984375 Z M 1.21875 0 L 1.21875 -8.640625 L 3.453125 -8.640625 L 3.453125 0 Z M 1.21875 0 "/></g></g></g><g fill="#ffffff" fill-opacity="1"><g transform="translate(76.915058, 15.924176)"><g><path d="M 1.125 0 L 1.125 -8.640625 L 3.09375 -8.640625 L 3.28125 -7.171875 C 3.539062 -7.679688 3.921875 -8.085938 4.421875 -8.390625 C 4.929688 -8.691406 5.53125 -8.84375 6.21875 -8.84375 C 7.289062 -8.84375 8.117188 -8.503906 8.703125 -7.828125 C 9.296875 -7.160156 9.59375 -6.175781 9.59375 -4.875 L 9.59375 0 L 7.375 0 L 7.375 -4.671875 C 7.375 -5.410156 7.222656 -5.976562 6.921875 -6.375 C 6.617188 -6.769531 6.144531 -6.96875 5.5 -6.96875 C 4.875 -6.96875 4.359375 -6.742188 3.953125 -6.296875 C 3.554688 -5.859375 3.359375 -5.242188 3.359375 -4.453125 L 3.359375 0 Z M 1.125 0 "/></g></g></g><g fill="#ffffff" fill-opacity="1"><g transform="translate(46.864281, 31.2485)"><g><path d="M 1.1875 0 L 1.1875 -12.203125 L 6.078125 -12.203125 C 7.347656 -12.203125 8.316406 -11.90625 8.984375 -11.3125 C 9.648438 -10.726562 9.984375 -9.976562 9.984375 -9.0625 C 9.984375 -8.289062 9.773438 -7.675781 9.359375 -7.21875 C 8.953125 -6.757812 8.453125 -6.453125 7.859375 -6.296875 C 8.554688 -6.148438 9.128906 -5.800781 9.578125 -5.25 C 10.035156 -4.695312 10.265625 -4.054688 10.265625 -3.328125 C 10.265625 -2.359375 9.914062 -1.5625 9.21875 -0.9375 C 8.519531 -0.3125 7.53125 0 6.25 0 Z M 3.421875 -7.078125 L 5.75 -7.078125 C 6.375 -7.078125 6.851562 -7.21875 7.1875 -7.5 C 7.53125 -7.789062 7.703125 -8.207031 7.703125 -8.75 C 7.703125 -9.257812 7.535156 -9.660156 7.203125 -9.953125 C 6.867188 -10.253906 6.375 -10.40625 5.71875 -10.40625 L 3.421875 -10.40625 Z M 3.421875 -1.8125 L 5.90625 -1.8125 C 6.570312 -1.8125 7.085938 -1.960938 7.453125 -2.265625 C 7.816406 -2.578125 8 -3.015625 8 -3.578125 C 8 -4.140625 7.804688 -4.582031 7.421875 -4.90625 C 7.035156 -5.238281 6.519531 -5.40625 5.875 -5.40625 L 3.421875 -5.40625 Z M 3.421875 -1.8125 "/></g></g></g><g fill="#ffffff" fill-opacity="1"><g transform="translate(56.672418, 31.2485)"><g><path d="M 1.125 0 L 1.125 -8.640625 L 3.125 -8.640625 L 3.328125 -7.015625 C 3.640625 -7.578125 4.066406 -8.019531 4.609375 -8.34375 C 5.148438 -8.675781 5.785156 -8.84375 6.515625 -8.84375 L 6.515625 -6.5 L 5.890625 -6.5 C 5.398438 -6.5 4.960938 -6.421875 4.578125 -6.265625 C 4.191406 -6.117188 3.890625 -5.859375 3.671875 -5.484375 C 3.460938 -5.117188 3.359375 -4.601562 3.359375 -3.9375 L 3.359375 0 Z M 1.125 0 "/></g></g></g><g fill="#ffffff" fill-opacity="1"><g transform="translate(62.229481, 31.2485)"><g><path d="M 5.328125 0.203125 C 4.460938 0.203125 3.691406 0.0195312 3.015625 -0.34375 C 2.335938 -0.71875 1.804688 -1.238281 1.421875 -1.90625 C 1.046875 -2.582031 0.859375 -3.363281 0.859375 -4.25 C 0.859375 -5.144531 1.046875 -5.941406 1.421875 -6.640625 C 1.796875 -7.335938 2.316406 -7.878906 2.984375 -8.265625 C 3.648438 -8.648438 4.4375 -8.84375 5.34375 -8.84375 C 6.195312 -8.84375 6.945312 -8.65625 7.59375 -8.28125 C 8.25 -7.914062 8.757812 -7.410156 9.125 -6.765625 C 9.488281 -6.117188 9.671875 -5.398438 9.671875 -4.609375 C 9.671875 -4.484375 9.664062 -4.347656 9.65625 -4.203125 C 9.65625 -4.066406 9.648438 -3.925781 9.640625 -3.78125 L 3.0625 -3.78125 C 3.113281 -3.101562 3.347656 -2.570312 3.765625 -2.1875 C 4.191406 -1.8125 4.707031 -1.625 5.3125 -1.625 C 5.769531 -1.625 6.148438 -1.722656 6.453125 -1.921875 C 6.765625 -2.128906 6.992188 -2.394531 7.140625 -2.71875 L 9.40625 -2.71875 C 9.238281 -2.175781 8.96875 -1.679688 8.59375 -1.234375 C 8.21875 -0.785156 7.753906 -0.429688 7.203125 -0.171875 C 6.648438 0.078125 6.023438 0.203125 5.328125 0.203125 Z M 5.34375 -7.03125 C 4.800781 -7.03125 4.320312 -6.875 3.90625 -6.5625 C 3.488281 -6.257812 3.21875 -5.796875 3.09375 -5.171875 L 7.40625 -5.171875 C 7.375 -5.742188 7.164062 -6.195312 6.78125 -6.53125 C 6.394531 -6.863281 5.914062 -7.03125 5.34375 -7.03125 Z M 5.34375 -7.03125 "/></g></g></g><g fill="#ffffff" fill-opacity="1"><g transform="translate(71.462684, 31.2485)"><g><path d="M 2.328125 -9.984375 C 1.921875 -9.984375 1.585938 -10.101562 1.328125 -10.34375 C 1.066406 -10.59375 0.9375 -10.898438 0.9375 -11.265625 C 0.9375 -11.640625 1.066406 -11.945312 1.328125 -12.1875 C 1.585938 -12.425781 1.921875 -12.546875 2.328125 -12.546875 C 2.734375 -12.546875 3.066406 -12.425781 3.328125 -12.1875 C 3.597656 -11.945312 3.734375 -11.640625 3.734375 -11.265625 C 3.734375 -10.898438 3.597656 -10.59375 3.328125 -10.34375 C 3.066406 -10.101562 2.734375 -9.984375 2.328125 -9.984375 Z M 1.21875 0 L 1.21875 -8.640625 L 3.453125 -8.640625 L 3.453125 0 Z M 1.21875 0 "/></g></g></g><g fill="#ffffff" fill-opacity="1"><g transform="translate(74.929101, 31.2485)"><g><path d="M 4.984375 0 C 4.078125 0 3.347656 -0.21875 2.796875 -0.65625 C 2.253906 -1.101562 1.984375 -1.890625 1.984375 -3.015625 L 1.984375 -6.78125 L 0.5 -6.78125 L 0.5 -8.640625 L 1.984375 -8.640625 L 2.25 -10.953125 L 4.21875 -10.953125 L 4.21875 -8.640625 L 6.546875 -8.640625 L 6.546875 -6.78125 L 4.21875 -6.78125 L 4.21875 -3 C 4.21875 -2.582031 4.304688 -2.296875 4.484375 -2.140625 C 4.660156 -1.984375 4.972656 -1.90625 5.421875 -1.90625 L 6.5 -1.90625 L 6.5 0 Z M 4.984375 0 "/></g></g></g><g fill="#ffffff" fill-opacity="1"><g transform="translate(80.852019, 31.2485)"><g><path d="M 5.328125 0.203125 C 4.460938 0.203125 3.691406 0.0195312 3.015625 -0.34375 C 2.335938 -0.71875 1.804688 -1.238281 1.421875 -1.90625 C 1.046875 -2.582031 0.859375 -3.363281 0.859375 -4.25 C 0.859375 -5.144531 1.046875 -5.941406 1.421875 -6.640625 C 1.796875 -7.335938 2.316406 -7.878906 2.984375 -8.265625 C 3.648438 -8.648438 4.4375 -8.84375 5.34375 -8.84375 C 6.195312 -8.84375 6.945312 -8.65625 7.59375 -8.28125 C 8.25 -7.914062 8.757812 -7.410156 9.125 -6.765625 C 9.488281 -6.117188 9.671875 -5.398438 9.671875 -4.609375 C 9.671875 -4.484375 9.664062 -4.347656 9.65625 -4.203125 C 9.65625 -4.066406 9.648438 -3.925781 9.640625 -3.78125 L 3.0625 -3.78125 C 3.113281 -3.101562 3.347656 -2.570312 3.765625 -2.1875 C 4.191406 -1.8125 4.707031 -1.625 5.3125 -1.625 C 5.769531 -1.625 6.148438 -1.722656 6.453125 -1.921875 C 6.765625 -2.128906 6.992188 -2.394531 7.140625 -2.71875 L 9.40625 -2.71875 C 9.238281 -2.175781 8.96875 -1.679688 8.59375 -1.234375 C 8.21875 -0.785156 7.753906 -0.429688 7.203125 -0.171875 C 6.648438 0.078125 6.023438 0.203125 5.328125 0.203125 Z M 5.34375 -7.03125 C 4.800781 -7.03125 4.320312 -6.875 3.90625 -6.5625 C 3.488281 -6.257812 3.21875 -5.796875 3.09375 -5.171875 L 7.40625 -5.171875 C 7.375 -5.742188 7.164062 -6.195312 6.78125 -6.53125 C 6.394531 -6.863281 5.914062 -7.03125 5.34375 -7.03125 Z M 5.34375 -7.03125 "/></g></g></g><g fill="#ffffff" fill-opacity="1"><g transform="translate(90.085223, 31.2485)"><g><path d="M 1.125 0 L 1.125 -8.640625 L 3.125 -8.640625 L 3.328125 -7.015625 C 3.640625 -7.578125 4.066406 -8.019531 4.609375 -8.34375 C 5.148438 -8.675781 5.785156 -8.84375 6.515625 -8.84375 L 6.515625 -6.5 L 5.890625 -6.5 C 5.398438 -6.5 4.960938 -6.421875 4.578125 -6.265625 C 4.191406 -6.117188 3.890625 -5.859375 3.671875 -5.484375 C 3.460938 -5.117188 3.359375 -4.601562 3.359375 -3.9375 L 3.359375 0 Z M 1.125 0 "/></g></g></g><g clip-path="url(#fe7801a282)"><g fill="#3dcfb6" fill-opacity="1"><g transform="translate(-1.928413, 32.10811)"><g><path d="M 3.609375 0 L 3.609375 -27.78125 L 9.109375 -27.78125 L 9.109375 -16.4375 L 9.71875 -16.4375 L 18.984375 -27.78125 L 24.609375 -27.78125 L 24.609375 -27.3125 L 14.390625 -14.671875 L 25.671875 -0.46875 L 25.671875 0 L 19.46875 0 L 9.71875 -11.984375 L 9.109375 -11.984375 L 9.109375 0 Z M 3.609375 0 "/></g></g></g></g><g fill="#3dcfb6" fill-opacity="1"><g transform="translate(19.681848, 32.10811)"><g><path d="M 3.609375 0 L 3.609375 -27.78125 L 15.46875 -27.78125 C 17.175781 -27.78125 18.625 -27.507812 19.8125 -26.96875 C 21 -26.4375 21.894531 -25.671875 22.5 -24.671875 C 23.101562 -23.679688 23.40625 -22.507812 23.40625 -21.15625 C 23.40625 -19.925781 23.109375 -18.84375 22.515625 -17.90625 C 21.921875 -16.96875 21.066406 -16.210938 19.953125 -15.640625 L 19.953125 -15.234375 C 21.703125 -14.785156 23.050781 -13.957031 24 -12.75 C 24.945312 -11.550781 25.421875 -10.078125 25.421875 -8.328125 C 25.421875 -5.660156 24.617188 -3.601562 23.015625 -2.15625 C 21.421875 -0.71875 19.046875 0 15.890625 0 Z M 14.328125 -16.703125 C 16.890625 -16.703125 18.171875 -17.859375 18.171875 -20.171875 C 18.171875 -21.347656 17.851562 -22.222656 17.21875 -22.796875 C 16.582031 -23.367188 15.617188 -23.65625 14.328125 -23.65625 L 9.109375 -23.65625 L 9.109375 -16.703125 Z M 15.34375 -4.359375 C 18.363281 -4.359375 19.875 -5.726562 19.875 -8.46875 C 19.875 -11.238281 18.363281 -12.625 15.34375 -12.625 L 9.109375 -12.625 L 9.109375 -4.359375 Z M 15.34375 -4.359375 "/></g></g></g></svg>