<svg xmlns="http://www.w3.org/2000/svg" xmlns:xlink="http://www.w3.org/1999/xlink" width="132" zoomAndPan="magnify" viewBox="0 0 98.88 36.000001" height="48" preserveAspectRatio="xMidYMid meet" version="1.0"><defs><g/><clipPath id="8fc57ac648"><path d="M 1.277344 3 L 25 3 L 25 33 L 1.277344 33 Z M 1.277344 3 " clip-rule="nonzero"/></clipPath></defs><g fill="#ffffff" fill-opacity="1"><g transform="translate(46.864281, 15.924176)"><g><path d="M 1.023438 0 L 1.023438 -12.363281 L 3.578125 -12.363281 L 3.578125 -7.265625 L 3.414062 -7.265625 L 3.296875 -7.375 L 7.855469 -12.363281 L 11.058594 -12.363281 L 6.304688 -7.242188 L 6.1875 -7.355469 L 6.324219 -7.441406 L 11.101562 0.164062 L 7.976562 0.164062 L 4.445312 -5.558594 L 4.582031 -5.644531 L 4.703125 -5.535156 L 3.535156 -4.261719 L 3.414062 -4.375 L 3.578125 -4.375 L 3.578125 0.164062 L 1.023438 0.164062 Z M 1.347656 0 L 1.183594 0 L 1.183594 -0.164062 L 3.414062 -0.164062 L 3.414062 0 L 3.253906 0 L 3.253906 -4.4375 L 4.609375 -5.914062 L 8.207031 -0.0859375 L 8.066406 0 L 8.066406 -0.164062 L 10.804688 -0.164062 L 10.804688 0 L 10.664062 0.0859375 L 5.980469 -7.371094 L 10.5625 -12.308594 L 10.683594 -12.199219 L 10.683594 -12.035156 L 7.929688 -12.035156 L 7.929688 -12.199219 L 8.050781 -12.085938 L 3.253906 -6.847656 L 3.253906 -12.199219 L 3.414062 -12.199219 L 3.414062 -12.035156 L 1.183594 -12.035156 L 1.183594 -12.199219 L 1.347656 -12.199219 Z M 1.347656 0 "/></g></g></g><g fill="#ffffff" fill-opacity="1"><g transform="translate(56.114754, 15.924176)"><g><path d="M 5.332031 0.371094 C 4.433594 0.371094 3.632812 0.179688 2.9375 -0.207031 C 2.234375 -0.59375 1.683594 -1.136719 1.285156 -1.835938 C 0.890625 -2.535156 0.691406 -3.339844 0.691406 -4.25 C 0.691406 -5.175781 0.886719 -5.996094 1.277344 -6.71875 C 1.667969 -7.441406 2.210938 -8.003906 2.90625 -8.410156 C 3.601562 -8.8125 4.414062 -9.015625 5.351562 -9.015625 C 6.226562 -9.015625 7.003906 -8.824219 7.679688 -8.4375 C 8.355469 -8.050781 8.882812 -7.519531 9.265625 -6.851562 C 9.644531 -6.179688 9.835938 -5.4375 9.835938 -4.617188 C 9.835938 -4.488281 9.832031 -4.351562 9.824219 -4.210938 C 9.820312 -4.070312 9.8125 -3.921875 9.800781 -3.769531 L 9.789062 -3.617188 L 3.066406 -3.617188 L 3.066406 -3.78125 L 3.230469 -3.792969 C 3.273438 -3.164062 3.492188 -2.671875 3.882812 -2.316406 C 4.273438 -1.960938 4.753906 -1.785156 5.316406 -1.785156 C 5.734375 -1.785156 6.085938 -1.875 6.367188 -2.0625 C 6.648438 -2.25 6.859375 -2.488281 6.996094 -2.789062 L 7.039062 -2.882812 L 9.628906 -2.882812 L 9.566406 -2.671875 C 9.398438 -2.105469 9.117188 -1.585938 8.722656 -1.125 C 8.332031 -0.65625 7.847656 -0.292969 7.273438 -0.0273438 C 6.699219 0.238281 6.054688 0.371094 5.332031 0.371094 Z M 5.332031 0.046875 C 6.003906 0.046875 6.605469 -0.078125 7.136719 -0.324219 C 7.667969 -0.566406 8.113281 -0.90625 8.476562 -1.332031 C 8.835938 -1.765625 9.097656 -2.242188 9.253906 -2.765625 L 9.410156 -2.71875 L 9.410156 -2.554688 L 7.144531 -2.554688 L 7.144531 -2.71875 L 7.292969 -2.648438 C 7.128906 -2.296875 6.878906 -2.007812 6.546875 -1.789062 C 6.210938 -1.566406 5.800781 -1.457031 5.316406 -1.457031 C 4.667969 -1.457031 4.117188 -1.664062 3.664062 -2.074219 C 3.207031 -2.488281 2.953125 -3.050781 2.902344 -3.769531 L 2.890625 -3.945312 L 9.636719 -3.945312 L 9.636719 -3.78125 L 9.472656 -3.792969 C 9.484375 -3.941406 9.492188 -4.085938 9.5 -4.222656 C 9.503906 -4.359375 9.507812 -4.492188 9.507812 -4.617188 C 9.507812 -5.378906 9.332031 -6.070312 8.980469 -6.6875 C 8.628906 -7.308594 8.140625 -7.796875 7.515625 -8.152344 C 6.890625 -8.511719 6.167969 -8.6875 5.351562 -8.6875 C 4.472656 -8.6875 3.714844 -8.5 3.070312 -8.128906 C 2.429688 -7.753906 1.925781 -7.230469 1.5625 -6.5625 C 1.199219 -5.890625 1.015625 -5.117188 1.015625 -4.25 C 1.015625 -3.398438 1.203125 -2.644531 1.570312 -1.996094 C 1.9375 -1.351562 2.445312 -0.847656 3.09375 -0.492188 C 3.742188 -0.132812 4.488281 0.046875 5.332031 0.046875 Z M 5.351562 -6.875 C 4.839844 -6.875 4.390625 -6.734375 4 -6.445312 C 3.617188 -6.164062 3.371094 -5.730469 3.261719 -5.144531 L 3.101562 -5.175781 L 3.101562 -5.339844 L 7.40625 -5.339844 L 7.40625 -5.175781 L 7.242188 -5.164062 C 7.210938 -5.691406 7.019531 -6.105469 6.671875 -6.410156 C 6.316406 -6.722656 5.878906 -6.875 5.351562 -6.875 Z M 5.351562 -7.203125 C 5.960938 -7.203125 6.472656 -7.023438 6.886719 -6.65625 C 7.304688 -6.289062 7.53125 -5.800781 7.570312 -5.183594 L 7.578125 -5.011719 L 2.90625 -5.011719 L 2.941406 -5.207031 C 3.066406 -5.875 3.355469 -6.375 3.804688 -6.710938 C 4.253906 -7.039062 4.769531 -7.203125 5.351562 -7.203125 Z M 5.351562 -7.203125 "/></g></g></g><g fill="#ffffff" fill-opacity="1"><g transform="translate(64.999438, 15.924176)"><g><path d="M 3.3125 0.0546875 L 0.0625 -8.808594 L 2.75 -8.808594 L 4.980469 -2.160156 L 4.828125 -2.109375 L 4.671875 -2.160156 L 6.90625 -8.808594 L 9.59375 -8.808594 L 6.28125 0.164062 L 3.355469 0.164062 Z M 3.621094 -0.0546875 L 3.46875 0 L 3.46875 -0.164062 L 6.167969 -0.164062 L 6.167969 0 L 6.015625 -0.0546875 L 9.203125 -8.699219 L 9.359375 -8.644531 L 9.359375 -8.480469 L 7.023438 -8.480469 L 7.023438 -8.644531 L 7.175781 -8.589844 L 4.828125 -1.59375 L 2.476562 -8.589844 L 2.632812 -8.644531 L 2.632812 -8.480469 L 0.296875 -8.480469 L 0.296875 -8.644531 L 0.449219 -8.699219 Z M 3.621094 -0.0546875 "/></g></g></g><g fill="#ffffff" fill-opacity="1"><g transform="translate(73.448641, 15.924176)"><g><path d="M 2.335938 -9.820312 C 1.886719 -9.820312 1.515625 -9.957031 1.222656 -10.230469 C 0.925781 -10.507812 0.777344 -10.855469 0.777344 -11.273438 C 0.777344 -11.695312 0.925781 -12.039062 1.222656 -12.308594 C 1.515625 -12.578125 1.886719 -12.710938 2.335938 -12.710938 C 2.785156 -12.710938 3.15625 -12.578125 3.445312 -12.308594 C 3.742188 -12.039062 3.890625 -11.695312 3.890625 -11.273438 C 3.890625 -10.855469 3.746094 -10.507812 3.449219 -10.230469 C 3.15625 -9.957031 2.785156 -9.820312 2.335938 -9.820312 Z M 2.335938 -10.148438 C 2.699219 -10.148438 2.996094 -10.253906 3.226562 -10.46875 C 3.453125 -10.683594 3.566406 -10.949219 3.566406 -11.273438 C 3.566406 -11.597656 3.453125 -11.863281 3.226562 -12.070312 C 2.996094 -12.277344 2.699219 -12.382812 2.335938 -12.382812 C 1.96875 -12.382812 1.671875 -12.277344 1.441406 -12.070312 C 1.21875 -11.863281 1.105469 -11.597656 1.105469 -11.273438 C 1.105469 -10.949219 1.21875 -10.683594 1.445312 -10.46875 C 1.675781 -10.253906 1.972656 -10.148438 2.335938 -10.148438 Z M 1.054688 0 L 1.054688 -8.808594 L 3.613281 -8.808594 L 3.613281 0.164062 L 1.054688 0.164062 Z M 1.382812 0 L 1.21875 0 L 1.21875 -0.164062 L 3.449219 -0.164062 L 3.449219 0 L 3.285156 0 L 3.285156 -8.644531 L 3.449219 -8.644531 L 3.449219 -8.480469 L 1.21875 -8.480469 L 1.21875 -8.644531 L 1.382812 -8.644531 Z M 1.382812 0 "/></g></g></g><g fill="#ffffff" fill-opacity="1"><g transform="translate(76.915058, 15.924176)"><g><path d="M 0.96875 0 L 0.96875 -8.808594 L 3.246094 -8.808594 L 3.4375 -7.199219 L 3.277344 -7.179688 L 3.132812 -7.253906 C 3.414062 -7.792969 3.820312 -8.222656 4.351562 -8.539062 C 4.882812 -8.855469 5.503906 -9.015625 6.222656 -9.015625 C 7.339844 -9.015625 8.210938 -8.660156 8.835938 -7.949219 C 9.457031 -7.246094 9.765625 -6.222656 9.765625 -4.878906 L 9.765625 0.164062 L 7.207031 0.164062 L 7.207031 -4.671875 C 7.207031 -5.375 7.066406 -5.914062 6.789062 -6.277344 C 6.519531 -6.628906 6.089844 -6.808594 5.507812 -6.808594 C 4.925781 -6.808594 4.453125 -6.605469 4.085938 -6.199219 C 3.710938 -5.789062 3.527344 -5.207031 3.527344 -4.460938 L 3.527344 0.164062 L 0.96875 0.164062 Z M 1.296875 0 L 1.132812 0 L 1.132812 -0.164062 L 3.363281 -0.164062 L 3.363281 0 L 3.199219 0 L 3.199219 -4.460938 C 3.199219 -5.292969 3.414062 -5.945312 3.84375 -6.417969 C 4.277344 -6.894531 4.832031 -7.132812 5.507812 -7.132812 C 6.199219 -7.132812 6.714844 -6.914062 7.046875 -6.476562 C 7.371094 -6.054688 7.535156 -5.449219 7.535156 -4.671875 L 7.535156 0 L 7.371094 0 L 7.371094 -0.164062 L 9.601562 -0.164062 L 9.601562 0 L 9.4375 0 L 9.4375 -4.878906 C 9.4375 -6.140625 9.15625 -7.089844 8.589844 -7.734375 C 8.03125 -8.371094 7.242188 -8.6875 6.222656 -8.6875 C 5.566406 -8.6875 5 -8.546875 4.519531 -8.257812 C 4.039062 -7.972656 3.675781 -7.585938 3.421875 -7.105469 L 3.175781 -6.636719 L 2.941406 -8.625 L 3.101562 -8.644531 L 3.101562 -8.480469 L 1.132812 -8.480469 L 1.132812 -8.644531 L 1.296875 -8.644531 Z M 1.296875 0 "/></g></g></g><g fill="#ffffff" fill-opacity="1"><g transform="translate(46.864281, 31.2485)"><g><path d="M 1.023438 0 L 1.023438 -12.363281 L 6.082031 -12.363281 C 7.390625 -12.363281 8.390625 -12.054688 9.089844 -11.441406 C 9.796875 -10.820312 10.148438 -10.027344 10.148438 -9.0625 C 10.148438 -8.253906 9.929688 -7.605469 9.488281 -7.113281 C 9.054688 -6.632812 8.527344 -6.304688 7.902344 -6.132812 L 7.859375 -6.289062 L 7.890625 -6.449219 C 8.625 -6.304688 9.234375 -5.941406 9.710938 -5.359375 C 10.1875 -4.777344 10.425781 -4.097656 10.425781 -3.328125 C 10.425781 -2.316406 10.0625 -1.480469 9.328125 -0.820312 C 8.597656 -0.164062 7.574219 0.164062 6.257812 0.164062 L 1.023438 0.164062 Z M 1.347656 0 L 1.183594 0 L 1.183594 -0.164062 L 6.257812 -0.164062 C 7.492188 -0.164062 8.441406 -0.464844 9.109375 -1.0625 C 9.769531 -1.65625 10.101562 -2.414062 10.101562 -3.328125 C 10.101562 -4.019531 9.886719 -4.628906 9.457031 -5.148438 C 9.03125 -5.671875 8.484375 -6 7.828125 -6.128906 L 7.816406 -6.449219 C 8.378906 -6.601562 8.855469 -6.898438 9.246094 -7.332031 C 9.628906 -7.761719 9.820312 -8.335938 9.820312 -9.0625 C 9.820312 -9.929688 9.507812 -10.640625 8.875 -11.195312 C 8.238281 -11.753906 7.308594 -12.035156 6.082031 -12.035156 L 1.183594 -12.035156 L 1.183594 -12.199219 L 1.347656 -12.199219 Z M 3.414062 -7.238281 L 5.75 -7.238281 C 6.335938 -7.238281 6.785156 -7.371094 7.089844 -7.632812 C 7.390625 -7.890625 7.539062 -8.261719 7.539062 -8.746094 C 7.539062 -9.210938 7.390625 -9.574219 7.097656 -9.835938 C 6.796875 -10.105469 6.335938 -10.238281 5.714844 -10.238281 L 3.414062 -10.238281 L 3.414062 -10.402344 L 3.578125 -10.402344 L 3.578125 -7.074219 L 3.414062 -7.074219 Z M 3.253906 -6.910156 L 3.253906 -10.566406 L 5.714844 -10.566406 C 6.417969 -10.566406 6.953125 -10.40625 7.316406 -10.082031 C 7.683594 -9.753906 7.867188 -9.308594 7.867188 -8.746094 C 7.867188 -8.164062 7.679688 -7.710938 7.304688 -7.386719 C 6.9375 -7.070312 6.417969 -6.910156 5.75 -6.910156 Z M 3.414062 -1.976562 L 5.90625 -1.976562 C 6.53125 -1.976562 7.007812 -2.117188 7.34375 -2.398438 C 7.671875 -2.675781 7.835938 -3.066406 7.835938 -3.574219 C 7.835938 -4.089844 7.664062 -4.496094 7.316406 -4.789062 C 6.964844 -5.089844 6.484375 -5.238281 5.871094 -5.238281 L 3.414062 -5.238281 L 3.414062 -5.402344 L 3.578125 -5.402344 L 3.578125 -1.8125 L 3.414062 -1.8125 Z M 3.253906 -1.648438 L 3.253906 -5.566406 L 5.871094 -5.566406 C 6.5625 -5.566406 7.117188 -5.390625 7.527344 -5.039062 C 7.949219 -4.679688 8.160156 -4.191406 8.160156 -3.574219 C 8.160156 -2.964844 7.960938 -2.488281 7.554688 -2.148438 C 7.160156 -1.816406 6.609375 -1.648438 5.90625 -1.648438 Z M 3.253906 -1.648438 "/></g></g></g><g fill="#ffffff" fill-opacity="1"><g transform="translate(56.672418, 31.2485)"><g><path d="M 0.96875 0 L 0.96875 -8.808594 L 3.261719 -8.808594 L 3.492188 -7.042969 L 3.328125 -7.023438 L 3.1875 -7.101562 C 3.511719 -7.683594 3.960938 -8.148438 4.523438 -8.496094 C 5.089844 -8.84375 5.753906 -9.015625 6.515625 -9.015625 L 6.679688 -9.015625 L 6.679688 -6.335938 L 5.890625 -6.335938 C 5.421875 -6.335938 5.007812 -6.265625 4.644531 -6.121094 C 4.292969 -5.984375 4.023438 -5.746094 3.828125 -5.40625 C 3.625 -5.0625 3.527344 -4.570312 3.527344 -3.9375 L 3.527344 0.164062 L 0.96875 0.164062 Z M 1.296875 0 L 1.132812 0 L 1.132812 -0.164062 L 3.363281 -0.164062 L 3.363281 0 L 3.199219 0 L 3.199219 -3.9375 C 3.199219 -4.628906 3.316406 -5.175781 3.542969 -5.570312 C 3.777344 -5.976562 4.105469 -6.261719 4.523438 -6.425781 C 4.925781 -6.585938 5.382812 -6.664062 5.890625 -6.664062 L 6.515625 -6.664062 L 6.515625 -6.5 L 6.355469 -6.5 L 6.355469 -8.851562 L 6.515625 -8.851562 L 6.515625 -8.6875 C 5.816406 -8.6875 5.207031 -8.53125 4.695312 -8.214844 C 4.179688 -7.898438 3.769531 -7.476562 3.472656 -6.941406 L 3.230469 -6.511719 L 2.957031 -8.621094 L 3.121094 -8.644531 L 3.121094 -8.480469 L 1.132812 -8.480469 L 1.132812 -8.644531 L 1.296875 -8.644531 Z M 1.296875 0 "/></g></g></g><g fill="#ffffff" fill-opacity="1"><g transform="translate(62.229481, 31.2485)"><g><path d="M 5.332031 0.371094 C 4.433594 0.371094 3.632812 0.179688 2.9375 -0.207031 C 2.234375 -0.59375 1.683594 -1.136719 1.285156 -1.835938 C 0.890625 -2.535156 0.691406 -3.339844 0.691406 -4.25 C 0.691406 -5.175781 0.886719 -5.996094 1.277344 -6.71875 C 1.667969 -7.441406 2.210938 -8.003906 2.90625 -8.410156 C 3.601562 -8.8125 4.414062 -9.015625 5.351562 -9.015625 C 6.226562 -9.015625 7.003906 -8.824219 7.679688 -8.4375 C 8.355469 -8.050781 8.882812 -7.519531 9.265625 -6.851562 C 9.644531 -6.179688 9.835938 -5.4375 9.835938 -4.617188 C 9.835938 -4.488281 9.832031 -4.351562 9.824219 -4.210938 C 9.820312 -4.070312 9.8125 -3.921875 9.800781 -3.769531 L 9.789062 -3.617188 L 3.066406 -3.617188 L 3.066406 -3.78125 L 3.230469 -3.792969 C 3.273438 -3.164062 3.492188 -2.671875 3.882812 -2.316406 C 4.273438 -1.960938 4.753906 -1.785156 5.316406 -1.785156 C 5.734375 -1.785156 6.085938 -1.875 6.367188 -2.0625 C 6.648438 -2.25 6.859375 -2.488281 6.996094 -2.789062 L 7.039062 -2.882812 L 9.628906 -2.882812 L 9.566406 -2.671875 C 9.398438 -2.105469 9.117188 -1.585938 8.722656 -1.125 C 8.332031 -0.65625 7.847656 -0.292969 7.273438 -0.0273438 C 6.699219 0.238281 6.054688 0.371094 5.332031 0.371094 Z M 5.332031 0.046875 C 6.003906 0.046875 6.605469 -0.078125 7.136719 -0.324219 C 7.667969 -0.566406 8.113281 -0.90625 8.476562 -1.332031 C 8.835938 -1.765625 9.097656 -2.242188 9.253906 -2.765625 L 9.410156 -2.71875 L 9.410156 -2.554688 L 7.144531 -2.554688 L 7.144531 -2.71875 L 7.292969 -2.648438 C 7.128906 -2.296875 6.878906 -2.007812 6.546875 -1.789062 C 6.210938 -1.566406 5.800781 -1.457031 5.316406 -1.457031 C 4.667969 -1.457031 4.117188 -1.664062 3.664062 -2.074219 C 3.207031 -2.488281 2.953125 -3.050781 2.902344 -3.769531 L 2.890625 -3.945312 L 9.636719 -3.945312 L 9.636719 -3.78125 L 9.472656 -3.792969 C 9.484375 -3.941406 9.492188 -4.085938 9.5 -4.222656 C 9.503906 -4.359375 9.507812 -4.492188 9.507812 -4.617188 C 9.507812 -5.378906 9.332031 -6.070312 8.980469 -6.6875 C 8.628906 -7.308594 8.140625 -7.796875 7.515625 -8.152344 C 6.890625 -8.511719 6.167969 -8.6875 5.351562 -8.6875 C 4.472656 -8.6875 3.714844 -8.5 3.070312 -8.128906 C 2.429688 -7.753906 1.925781 -7.230469 1.5625 -6.5625 C 1.199219 -5.890625 1.015625 -5.117188 1.015625 -4.25 C 1.015625 -3.398438 1.203125 -2.644531 1.570312 -1.996094 C 1.9375 -1.351562 2.445312 -0.847656 3.09375 -0.492188 C 3.742188 -0.132812 4.488281 0.046875 5.332031 0.046875 Z M 5.351562 -6.875 C 4.839844 -6.875 4.390625 -6.734375 4 -6.445312 C 3.617188 -6.164062 3.371094 -5.730469 3.261719 -5.144531 L 3.101562 -5.175781 L 3.101562 -5.339844 L 7.40625 -5.339844 L 7.40625 -5.175781 L 7.242188 -5.164062 C 7.210938 -5.691406 7.019531 -6.105469 6.671875 -6.410156 C 6.316406 -6.722656 5.878906 -6.875 5.351562 -6.875 Z M 5.351562 -7.203125 C 5.960938 -7.203125 6.472656 -7.023438 6.886719 -6.65625 C 7.304688 -6.289062 7.53125 -5.800781 7.570312 -5.183594 L 7.578125 -5.011719 L 2.90625 -5.011719 L 2.941406 -5.207031 C 3.066406 -5.875 3.355469 -6.375 3.804688 -6.710938 C 4.253906 -7.039062 4.769531 -7.203125 5.351562 -7.203125 Z M 5.351562 -7.203125 "/></g></g></g><g fill="#ffffff" fill-opacity="1"><g transform="translate(71.462684, 31.2485)"><g><path d="M 2.335938 -9.820312 C 1.886719 -9.820312 1.515625 -9.957031 1.222656 -10.230469 C 0.925781 -10.507812 0.777344 -10.855469 0.777344 -11.273438 C 0.777344 -11.695312 0.925781 -12.039062 1.222656 -12.308594 C 1.515625 -12.578125 1.886719 -12.710938 2.335938 -12.710938 C 2.785156 -12.710938 3.15625 -12.578125 3.445312 -12.308594 C 3.742188 -12.039062 3.890625 -11.695312 3.890625 -11.273438 C 3.890625 -10.855469 3.746094 -10.507812 3.449219 -10.230469 C 3.15625 -9.957031 2.785156 -9.820312 2.335938 -9.820312 Z M 2.335938 -10.148438 C 2.699219 -10.148438 2.996094 -10.253906 3.226562 -10.46875 C 3.453125 -10.683594 3.566406 -10.949219 3.566406 -11.273438 C 3.566406 -11.597656 3.453125 -11.863281 3.226562 -12.070312 C 2.996094 -12.277344 2.699219 -12.382812 2.335938 -12.382812 C 1.96875 -12.382812 1.671875 -12.277344 1.441406 -12.070312 C 1.21875 -11.863281 1.105469 -11.597656 1.105469 -11.273438 C 1.105469 -10.949219 1.21875 -10.683594 1.445312 -10.46875 C 1.675781 -10.253906 1.972656 -10.148438 2.335938 -10.148438 Z M 1.054688 0 L 1.054688 -8.808594 L 3.613281 -8.808594 L 3.613281 0.164062 L 1.054688 0.164062 Z M 1.382812 0 L 1.21875 0 L 1.21875 -0.164062 L 3.449219 -0.164062 L 3.449219 0 L 3.285156 0 L 3.285156 -8.644531 L 3.449219 -8.644531 L 3.449219 -8.480469 L 1.21875 -8.480469 L 1.21875 -8.644531 L 1.382812 -8.644531 Z M 1.382812 0 "/></g></g></g><g fill="#ffffff" fill-opacity="1"><g transform="translate(74.929101, 31.2485)"><g><path d="M 4.984375 0.164062 C 4.039062 0.164062 3.277344 -0.0703125 2.703125 -0.535156 C 2.117188 -1.007812 1.824219 -1.835938 1.824219 -3.015625 L 1.824219 -6.777344 L 1.988281 -6.777344 L 1.988281 -6.617188 L 0.34375 -6.617188 L 0.34375 -8.808594 L 1.988281 -8.808594 L 1.988281 -8.644531 L 1.824219 -8.660156 L 2.101562 -11.125 L 4.378906 -11.125 L 4.378906 -8.644531 L 4.21875 -8.644531 L 4.21875 -8.808594 L 6.714844 -8.808594 L 6.714844 -6.617188 L 4.21875 -6.617188 L 4.21875 -6.777344 L 4.378906 -6.777344 L 4.378906 -2.996094 C 4.378906 -2.628906 4.453125 -2.382812 4.59375 -2.257812 C 4.742188 -2.128906 5.019531 -2.0625 5.417969 -2.0625 L 6.664062 -2.0625 L 6.664062 0.164062 Z M 4.984375 -0.164062 L 6.5 -0.164062 L 6.5 0 L 6.335938 0 L 6.335938 -1.898438 L 6.5 -1.898438 L 6.5 -1.734375 L 5.417969 -1.734375 C 4.9375 -1.734375 4.589844 -1.828125 4.378906 -2.011719 C 4.164062 -2.199219 4.054688 -2.53125 4.054688 -2.996094 L 4.054688 -6.941406 L 6.550781 -6.941406 L 6.550781 -6.777344 L 6.390625 -6.777344 L 6.390625 -8.644531 L 6.550781 -8.644531 L 6.550781 -8.480469 L 4.054688 -8.480469 L 4.054688 -10.960938 L 4.21875 -10.960938 L 4.21875 -10.796875 L 2.246094 -10.796875 L 2.246094 -10.960938 L 2.410156 -10.941406 L 2.132812 -8.480469 L 0.503906 -8.480469 L 0.503906 -8.644531 L 0.667969 -8.644531 L 0.667969 -6.777344 L 0.503906 -6.777344 L 0.503906 -6.941406 L 2.148438 -6.941406 L 2.148438 -3.015625 C 2.148438 -1.941406 2.402344 -1.199219 2.910156 -0.789062 C 3.425781 -0.371094 4.117188 -0.164062 4.984375 -0.164062 Z M 4.984375 -0.164062 "/></g></g></g><g fill="#ffffff" fill-opacity="1"><g transform="translate(80.852019, 31.2485)"><g><path d="M 5.332031 0.371094 C 4.433594 0.371094 3.632812 0.179688 2.9375 -0.207031 C 2.234375 -0.59375 1.683594 -1.136719 1.285156 -1.835938 C 0.890625 -2.535156 0.691406 -3.339844 0.691406 -4.25 C 0.691406 -5.175781 0.886719 -5.996094 1.277344 -6.71875 C 1.667969 -7.441406 2.210938 -8.003906 2.90625 -8.410156 C 3.601562 -8.8125 4.414062 -9.015625 5.351562 -9.015625 C 6.226562 -9.015625 7.003906 -8.824219 7.679688 -8.4375 C 8.355469 -8.050781 8.882812 -7.519531 9.265625 -6.851562 C 9.644531 -6.179688 9.835938 -5.4375 9.835938 -4.617188 C 9.835938 -4.488281 9.832031 -4.351562 9.824219 -4.210938 C 9.820312 -4.070312 9.8125 -3.921875 9.800781 -3.769531 L 9.789062 -3.617188 L 3.066406 -3.617188 L 3.066406 -3.78125 L 3.230469 -3.792969 C 3.273438 -3.164062 3.492188 -2.671875 3.882812 -2.316406 C 4.273438 -1.960938 4.753906 -1.785156 5.316406 -1.785156 C 5.734375 -1.785156 6.085938 -1.875 6.367188 -2.0625 C 6.648438 -2.25 6.859375 -2.488281 6.996094 -2.789062 L 7.039062 -2.882812 L 9.628906 -2.882812 L 9.566406 -2.671875 C 9.398438 -2.105469 9.117188 -1.585938 8.722656 -1.125 C 8.332031 -0.65625 7.847656 -0.292969 7.273438 -0.0273438 C 6.699219 0.238281 6.054688 0.371094 5.332031 0.371094 Z M 5.332031 0.046875 C 6.003906 0.046875 6.605469 -0.078125 7.136719 -0.324219 C 7.667969 -0.566406 8.113281 -0.90625 8.476562 -1.332031 C 8.835938 -1.765625 9.097656 -2.242188 9.253906 -2.765625 L 9.410156 -2.71875 L 9.410156 -2.554688 L 7.144531 -2.554688 L 7.144531 -2.71875 L 7.292969 -2.648438 C 7.128906 -2.296875 6.878906 -2.007812 6.546875 -1.789062 C 6.210938 -1.566406 5.800781 -1.457031 5.316406 -1.457031 C 4.667969 -1.457031 4.117188 -1.664062 3.664062 -2.074219 C 3.207031 -2.488281 2.953125 -3.050781 2.902344 -3.769531 L 2.890625 -3.945312 L 9.636719 -3.945312 L 9.636719 -3.78125 L 9.472656 -3.792969 C 9.484375 -3.941406 9.492188 -4.085938 9.5 -4.222656 C 9.503906 -4.359375 9.507812 -4.492188 9.507812 -4.617188 C 9.507812 -5.378906 9.332031 -6.070312 8.980469 -6.6875 C 8.628906 -7.308594 8.140625 -7.796875 7.515625 -8.152344 C 6.890625 -8.511719 6.167969 -8.6875 5.351562 -8.6875 C 4.472656 -8.6875 3.714844 -8.5 3.070312 -8.128906 C 2.429688 -7.753906 1.925781 -7.230469 1.5625 -6.5625 C 1.199219 -5.890625 1.015625 -5.117188 1.015625 -4.25 C 1.015625 -3.398438 1.203125 -2.644531 1.570312 -1.996094 C 1.9375 -1.351562 2.445312 -0.847656 3.09375 -0.492188 C 3.742188 -0.132812 4.488281 0.046875 5.332031 0.046875 Z M 5.351562 -6.875 C 4.839844 -6.875 4.390625 -6.734375 4 -6.445312 C 3.617188 -6.164062 3.371094 -5.730469 3.261719 -5.144531 L 3.101562 -5.175781 L 3.101562 -5.339844 L 7.40625 -5.339844 L 7.40625 -5.175781 L 7.242188 -5.164062 C 7.210938 -5.691406 7.019531 -6.105469 6.671875 -6.410156 C 6.316406 -6.722656 5.878906 -6.875 5.351562 -6.875 Z M 5.351562 -7.203125 C 5.960938 -7.203125 6.472656 -7.023438 6.886719 -6.65625 C 7.304688 -6.289062 7.53125 -5.800781 7.570312 -5.183594 L 7.578125 -5.011719 L 2.90625 -5.011719 L 2.941406 -5.207031 C 3.066406 -5.875 3.355469 -6.375 3.804688 -6.710938 C 4.253906 -7.039062 4.769531 -7.203125 5.351562 -7.203125 Z M 5.351562 -7.203125 "/></g></g></g><g fill="#ffffff" fill-opacity="1"><g transform="translate(90.085223, 31.2485)"><g><path d="M 0.96875 0 L 0.96875 -8.808594 L 3.261719 -8.808594 L 3.492188 -7.042969 L 3.328125 -7.023438 L 3.1875 -7.101562 C 3.511719 -7.683594 3.960938 -8.148438 4.523438 -8.496094 C 5.089844 -8.84375 5.753906 -9.015625 6.515625 -9.015625 L 6.679688 -9.015625 L 6.679688 -6.335938 L 5.890625 -6.335938 C 5.421875 -6.335938 5.007812 -6.265625 4.644531 -6.121094 C 4.292969 -5.984375 4.023438 -5.746094 3.828125 -5.40625 C 3.625 -5.0625 3.527344 -4.570312 3.527344 -3.9375 L 3.527344 0.164062 L 0.96875 0.164062 Z M 1.296875 0 L 1.132812 0 L 1.132812 -0.164062 L 3.363281 -0.164062 L 3.363281 0 L 3.199219 0 L 3.199219 -3.9375 C 3.199219 -4.628906 3.316406 -5.175781 3.542969 -5.570312 C 3.777344 -5.976562 4.105469 -6.261719 4.523438 -6.425781 C 4.925781 -6.585938 5.382812 -6.664062 5.890625 -6.664062 L 6.515625 -6.664062 L 6.515625 -6.5 L 6.355469 -6.5 L 6.355469 -8.851562 L 6.515625 -8.851562 L 6.515625 -8.6875 C 5.816406 -8.6875 5.207031 -8.53125 4.695312 -8.214844 C 4.179688 -7.898438 3.769531 -7.476562 3.472656 -6.941406 L 3.230469 -6.511719 L 2.957031 -8.621094 L 3.121094 -8.644531 L 3.121094 -8.480469 L 1.132812 -8.480469 L 1.132812 -8.644531 L 1.296875 -8.644531 Z M 1.296875 0 "/></g></g></g><g clip-path="url(#8fc57ac648)"><g fill="#3dcfb6" fill-opacity="1"><g transform="translate(-1.928413, 32.10811)"><g><path d="M 3.246094 0 L 3.246094 -28.144531 L 9.46875 -28.144531 L 9.46875 -16.4375 L 9.101562 -16.4375 L 9.101562 -16.800781 L 9.710938 -16.800781 L 9.710938 -16.4375 L 9.425781 -16.667969 L 18.808594 -28.144531 L 24.972656 -28.144531 L 24.972656 -27.175781 L 14.667969 -14.441406 L 14.382812 -14.667969 L 14.671875 -14.898438 L 26.035156 -0.601562 L 26.035156 0.363281 L 19.285156 0.363281 L 9.425781 -11.761719 L 9.710938 -11.992188 L 9.710938 -11.625 L 9.101562 -11.625 L 9.101562 -11.992188 L 9.46875 -11.992188 L 9.46875 0.363281 L 3.246094 0.363281 Z M 3.976562 0 L 3.609375 0 L 3.609375 -0.363281 L 9.101562 -0.363281 L 9.101562 0 L 8.738281 0 L 8.738281 -12.355469 L 9.882812 -12.355469 L 19.742188 -0.230469 L 19.457031 0 L 19.457031 -0.363281 L 25.671875 -0.363281 L 25.671875 0 L 25.308594 0 L 25.308594 -0.476562 L 25.671875 -0.476562 L 25.386719 -0.246094 L 13.917969 -14.671875 L 24.324219 -27.535156 L 24.609375 -27.304688 L 24.242188 -27.304688 L 24.242188 -27.78125 L 24.609375 -27.78125 L 24.609375 -27.417969 L 18.984375 -27.417969 L 18.984375 -27.78125 L 19.265625 -27.550781 L 9.882812 -16.070312 L 8.738281 -16.070312 L 8.738281 -27.78125 L 9.101562 -27.78125 L 9.101562 -27.417969 L 3.609375 -27.417969 L 3.609375 -27.78125 L 3.976562 -27.78125 Z M 3.976562 0 "/></g></g></g></g><g fill="#3dcfb6" fill-opacity="1"><g transform="translate(19.681848, 32.10811)"><g><path d="M 3.246094 0 L 3.246094 -28.144531 L 15.46875 -28.144531 C 17.230469 -28.144531 18.726562 -27.867188 19.960938 -27.304688 C 21.214844 -26.738281 22.164062 -25.921875 22.808594 -24.863281 C 23.453125 -23.8125 23.777344 -22.574219 23.777344 -21.148438 C 23.777344 -19.851562 23.457031 -18.703125 22.824219 -17.703125 C 22.195312 -16.710938 21.292969 -15.914062 20.117188 -15.3125 L 19.953125 -15.640625 L 20.316406 -15.640625 L 20.316406 -15.238281 L 19.953125 -15.238281 L 20.042969 -15.59375 C 21.871094 -15.117188 23.285156 -14.242188 24.285156 -12.976562 C 25.289062 -11.707031 25.789062 -10.15625 25.789062 -8.324219 C 25.789062 -5.554688 24.949219 -3.410156 23.265625 -1.894531 C 21.59375 -0.386719 19.132812 0.363281 15.886719 0.363281 L 3.246094 0.363281 Z M 3.976562 0 L 3.609375 0 L 3.609375 -0.363281 L 15.886719 -0.363281 C 18.945312 -0.363281 21.242188 -1.054688 22.777344 -2.4375 C 24.300781 -3.808594 25.058594 -5.769531 25.058594 -8.324219 C 25.058594 -9.988281 24.609375 -11.386719 23.714844 -12.523438 C 22.8125 -13.664062 21.53125 -14.453125 19.859375 -14.886719 L 19.585938 -14.957031 L 19.585938 -15.863281 L 19.785156 -15.964844 C 20.84375 -16.503906 21.648438 -17.214844 22.210938 -18.09375 C 22.765625 -18.972656 23.046875 -19.992188 23.046875 -21.148438 C 23.046875 -22.4375 22.757812 -23.546875 22.1875 -24.484375 C 21.617188 -25.414062 20.773438 -26.132812 19.660156 -26.640625 C 18.523438 -27.15625 17.125 -27.417969 15.46875 -27.417969 L 3.609375 -27.417969 L 3.609375 -27.78125 L 3.976562 -27.78125 Z M 14.328125 -17.066406 C 15.515625 -17.066406 16.390625 -17.324219 16.960938 -17.839844 C 17.523438 -18.34375 17.800781 -19.117188 17.800781 -20.160156 C 17.800781 -21.230469 17.523438 -22.019531 16.96875 -22.523438 C 16.40625 -23.035156 15.527344 -23.292969 14.328125 -23.292969 L 9.101562 -23.292969 L 9.101562 -23.65625 L 9.46875 -23.65625 L 9.46875 -16.703125 L 9.101562 -16.703125 L 9.101562 -17.066406 Z M 14.328125 -16.339844 L 8.738281 -16.339844 L 8.738281 -24.023438 L 14.328125 -24.023438 C 15.714844 -24.023438 16.757812 -23.703125 17.460938 -23.0625 C 18.175781 -22.414062 18.53125 -21.445312 18.53125 -20.160156 C 18.53125 -18.898438 18.171875 -17.945312 17.449219 -17.296875 C 16.742188 -16.65625 15.699219 -16.339844 14.328125 -16.339844 Z M 15.335938 -4.714844 C 16.753906 -4.714844 17.808594 -5.027344 18.496094 -5.652344 C 19.171875 -6.265625 19.511719 -7.207031 19.511719 -8.476562 C 19.511719 -9.75 19.171875 -10.695312 18.496094 -11.3125 C 17.808594 -11.9375 16.753906 -12.253906 15.335938 -12.253906 L 9.101562 -12.253906 L 9.101562 -12.617188 L 9.46875 -12.617188 L 9.46875 -4.351562 L 9.101562 -4.351562 L 9.101562 -4.714844 Z M 15.335938 -3.988281 L 8.738281 -3.988281 L 8.738281 -12.980469 L 15.335938 -12.980469 C 16.941406 -12.980469 18.160156 -12.605469 18.988281 -11.851562 C 19.824219 -11.089844 20.242188 -9.964844 20.242188 -8.476562 C 20.242188 -6.992188 19.824219 -5.871094 18.984375 -5.113281 C 18.160156 -4.363281 16.941406 -3.988281 15.335938 -3.988281 Z M 15.335938 -3.988281 "/></g></g></g></svg>