<svg xmlns="http://www.w3.org/2000/svg" xmlns:xlink="http://www.w3.org/1999/xlink" width="200" zoomAndPan="magnify" viewBox="0 0 150 112.499997" height="150" preserveAspectRatio="xMidYMid meet" version="1.0"><defs><g/><clipPath id="129a4ae93f"><path d="M 0.332031 0 L 149.667969 0 L 149.667969 112.003906 L 0.332031 112.003906 Z M 0.332031 0 " clip-rule="nonzero"/></clipPath><clipPath id="dd70691a33"><rect x="0" width="150" y="0" height="113"/></clipPath></defs><g clip-path="url(#129a4ae93f)"><g><g clip-path="url(#dd70691a33)"><g fill="#3dcfb6" fill-opacity="1"><g transform="translate(-10.466441, 103.800969)"><g><path d="M 12.265625 0 L 12.265625 -94.390625 L 30.921875 -94.390625 L 30.921875 -55.84375 L 33 -55.84375 L 64.5 -94.390625 L 83.609375 -94.390625 L 83.609375 -92.78125 L 48.875 -49.84375 L 87.234375 -1.609375 L 87.234375 0 L 66.125 0 L 33 -40.734375 L 30.921875 -40.734375 L 30.921875 0 Z M 12.265625 0 "/></g></g></g><g fill="#3dcfb6" fill-opacity="1"><g transform="translate(62.480136, 103.800969)"><g><path d="M 12.265625 0 L 12.265625 -94.390625 L 52.5625 -94.390625 C 58.375 -94.390625 63.289062 -93.472656 67.3125 -91.640625 C 71.332031 -89.816406 74.375 -87.210938 76.4375 -83.828125 C 78.507812 -80.453125 79.546875 -76.460938 79.546875 -71.859375 C 79.546875 -67.679688 78.535156 -64 76.515625 -60.8125 C 74.492188 -57.632812 71.585938 -55.078125 67.796875 -53.140625 L 67.796875 -51.78125 C 73.734375 -50.226562 78.316406 -47.40625 81.546875 -43.3125 C 84.773438 -39.226562 86.390625 -34.21875 86.390625 -28.28125 C 86.390625 -19.238281 83.664062 -12.265625 78.21875 -7.359375 C 72.78125 -2.453125 64.703125 0 53.984375 0 Z M 48.6875 -56.75 C 57.382812 -56.75 61.734375 -60.664062 61.734375 -68.5 C 61.734375 -72.507812 60.65625 -75.492188 58.5 -77.453125 C 56.34375 -79.410156 53.070312 -80.390625 48.6875 -80.390625 L 30.921875 -80.390625 L 30.921875 -56.75 Z M 52.109375 -14.78125 C 62.390625 -14.78125 67.53125 -19.453125 67.53125 -28.796875 C 67.53125 -38.179688 62.390625 -42.875 52.109375 -42.875 L 30.921875 -42.875 L 30.921875 -14.78125 Z M 52.109375 -14.78125 "/></g></g></g></g></g></g></svg>