<svg xmlns="http://www.w3.org/2000/svg" xmlns:xlink="http://www.w3.org/1999/xlink" width="200" zoomAndPan="magnify" viewBox="0 0 150 112.499997" height="150" preserveAspectRatio="xMidYMid meet" version="1.0"><defs><g/><clipPath id="aca64087a0"><path d="M 0.332031 0 L 149.667969 0 L 149.667969 112.003906 L 0.332031 112.003906 Z M 0.332031 0 " clip-rule="nonzero"/></clipPath><clipPath id="0592d25c05"><path d="M 0.332031 8 L 79 8 L 79 106 L 0.332031 106 Z M 0.332031 8 " clip-rule="nonzero"/></clipPath><clipPath id="9fd5ea3e88"><path d="M 73 8 L 149.667969 8 L 149.667969 106 L 73 106 Z M 73 8 " clip-rule="nonzero"/></clipPath><clipPath id="5a89ff7f73"><rect x="0" width="150" y="0" height="113"/></clipPath></defs><g clip-path="url(#aca64087a0)"><g><g clip-path="url(#5a89ff7f73)"><g clip-path="url(#0592d25c05)"><g fill="#3dcfb6" fill-opacity="1"><g transform="translate(-10.466441, 103.800969)"><g><path d="M 11.027344 0 L 11.027344 -95.632812 L 32.167969 -95.632812 L 32.167969 -55.847656 L 30.925781 -55.847656 L 30.925781 -57.089844 L 32.992188 -57.089844 L 32.992188 -55.847656 L 32.03125 -56.632812 L 63.914062 -95.632812 L 84.851562 -95.632812 L 84.851562 -92.339844 L 49.839844 -49.066406 L 48.875 -49.84375 L 49.847656 -50.617188 L 88.46875 -2.046875 L 88.46875 1.238281 L 65.523438 1.238281 L 32.03125 -39.957031 L 32.992188 -40.742188 L 32.992188 -39.5 L 30.925781 -39.5 L 30.925781 -40.742188 L 32.167969 -40.742188 L 32.167969 1.238281 L 11.027344 1.238281 Z M 13.507812 0 L 12.265625 0 L 12.265625 -1.238281 L 30.925781 -1.238281 L 30.925781 0 L 29.6875 0 L 29.6875 -41.980469 L 33.582031 -41.980469 L 67.078125 -0.78125 L 66.113281 0 L 66.113281 -1.238281 L 87.226562 -1.238281 L 87.226562 0 L 85.988281 0 L 85.988281 -1.613281 L 87.226562 -1.613281 L 86.257812 -0.84375 L 47.285156 -49.851562 L 82.648438 -93.558594 L 83.613281 -92.78125 L 82.371094 -92.78125 L 82.371094 -94.394531 L 83.613281 -94.394531 L 83.613281 -93.15625 L 64.5 -93.15625 L 64.5 -94.394531 L 65.460938 -93.609375 L 33.582031 -54.609375 L 29.6875 -54.609375 L 29.6875 -94.394531 L 30.925781 -94.394531 L 30.925781 -93.15625 L 12.265625 -93.15625 L 12.265625 -94.394531 L 13.507812 -94.394531 Z M 13.507812 0 "/></g></g></g></g><g clip-path="url(#9fd5ea3e88)"><g fill="#3dcfb6" fill-opacity="1"><g transform="translate(62.480136, 103.800969)"><g><path d="M 11.027344 0 L 11.027344 -95.632812 L 52.554688 -95.632812 C 58.546875 -95.632812 63.632812 -94.683594 67.820312 -92.777344 C 72.078125 -90.84375 75.304688 -88.078125 77.503906 -84.484375 C 79.691406 -80.90625 80.785156 -76.699219 80.785156 -71.859375 C 80.785156 -67.445312 79.707031 -63.542969 77.554688 -60.15625 C 75.414062 -56.78125 72.347656 -54.074219 68.359375 -52.035156 L 67.792969 -53.136719 L 69.03125 -53.136719 L 69.03125 -51.78125 L 67.792969 -51.78125 L 68.105469 -52.980469 C 74.3125 -51.359375 79.117188 -48.398438 82.519531 -44.089844 C 85.925781 -39.777344 87.628906 -34.507812 87.628906 -28.28125 C 87.628906 -18.871094 84.769531 -11.59375 79.050781 -6.441406 C 73.371094 -1.320312 65.011719 1.238281 53.976562 1.238281 L 11.027344 1.238281 Z M 13.507812 0 L 12.265625 0 L 12.265625 -1.238281 L 53.976562 -1.238281 C 64.375 -1.238281 72.179688 -3.585938 77.390625 -8.28125 C 82.5625 -12.941406 85.148438 -19.609375 85.148438 -28.28125 C 85.148438 -33.933594 83.625 -38.691406 80.574219 -42.554688 C 77.515625 -46.425781 73.152344 -49.101562 67.480469 -50.582031 L 66.554688 -50.824219 L 66.554688 -53.894531 L 67.230469 -54.242188 C 70.816406 -56.074219 73.5625 -58.488281 75.464844 -61.484375 C 77.355469 -64.46875 78.304688 -67.925781 78.304688 -71.859375 C 78.304688 -76.234375 77.332031 -80.011719 75.386719 -83.191406 C 73.453125 -86.355469 70.589844 -88.796875 66.796875 -90.519531 C 62.933594 -92.277344 58.1875 -93.15625 52.554688 -93.15625 L 12.265625 -93.15625 L 12.265625 -94.394531 L 13.507812 -94.394531 Z M 48.683594 -57.992188 C 52.710938 -57.992188 55.695312 -58.867188 57.632812 -60.609375 C 59.535156 -62.324219 60.484375 -64.953125 60.484375 -68.503906 C 60.484375 -72.140625 59.542969 -74.816406 57.660156 -76.527344 C 55.746094 -78.273438 52.753906 -79.144531 48.683594 -79.144531 L 30.925781 -79.144531 L 30.925781 -80.382812 L 32.167969 -80.382812 L 32.167969 -56.753906 L 30.925781 -56.753906 L 30.925781 -57.992188 Z M 48.683594 -55.511719 L 29.6875 -55.511719 L 29.6875 -81.625 L 48.683594 -81.625 C 53.390625 -81.625 56.941406 -80.535156 59.332031 -78.363281 C 61.753906 -76.160156 62.964844 -72.871094 62.964844 -68.503906 C 62.964844 -64.21875 61.742188 -60.972656 59.292969 -58.769531 C 56.882812 -56.597656 53.347656 -55.511719 48.683594 -55.511719 Z M 52.105469 -16.023438 C 56.929688 -16.023438 60.507812 -17.085938 62.84375 -19.207031 C 65.144531 -21.296875 66.296875 -24.492188 66.296875 -28.796875 C 66.296875 -33.121094 65.144531 -36.335938 62.84375 -38.4375 C 60.507812 -40.566406 56.925781 -41.632812 52.105469 -41.632812 L 30.925781 -41.632812 L 30.925781 -42.871094 L 32.167969 -42.871094 L 32.167969 -14.785156 L 30.925781 -14.785156 L 30.925781 -16.023438 Z M 52.105469 -13.546875 L 29.6875 -13.546875 L 29.6875 -44.109375 L 52.105469 -44.109375 C 57.566406 -44.109375 61.703125 -42.828125 64.511719 -40.269531 C 67.355469 -37.675781 68.773438 -33.851562 68.773438 -28.796875 C 68.773438 -23.761719 67.351562 -19.953125 64.511719 -17.371094 C 61.703125 -14.820312 57.566406 -13.546875 52.105469 -13.546875 Z M 52.105469 -13.546875 "/></g></g></g></g></g></g></g></svg>